PathFileType	4	(X/Y/Z)	/tmp/tmpfbxcaoho/Subject7/MarkerData/Take_2_10hz_segment_1.trc
DataRate	CameraRate	NumFrames	NumMarkers	Units	OrigDataRate	OrigDataStartFrame	OrigNumFrames
50.0148	50.0148	11	39	m	50.0148	1031	1375
Frame#	Time	C7			CLAV			LANK			LASI			LBHD			LELB			LFHD			LFIN			LFRM			LHEE			LKNE			LPSI			LSHO			LTHI			LTIB			LTOE			LUPA			LWRA			LWRB			RANK			RASI			RBAK			RBHD			RELB			RFHD			RFIN			RFRM			RHEE			RKNE			RPSI			RSHO			RTHI			RTIB			RTOE			RUPA			RWRA			RWRB			STRN			T10		
		X1	Y1	Z1	X2	Y2	Z2	X3	Y3	Z3	X4	Y4	Z4	X5	Y5	Z5	X6	Y6	Z6	X7	Y7	Z7	X8	Y8	Z8	X9	Y9	Z9	X10	Y10	Z10	X11	Y11	Z11	X12	Y12	Z12	X13	Y13	Z13	X14	Y14	Z14	X15	Y15	Z15	X16	Y16	Z16	X17	Y17	Z17	X18	Y18	Z18	X19	Y19	Z19	X20	Y20	Z20	X21	Y21	Z21	X22	Y22	Z22	X23	Y23	Z23	X24	Y24	Z24	X25	Y25	Z25	X26	Y26	Z26	X27	Y27	Z27	X28	Y28	Z28	X29	Y29	Z29	X30	Y30	Z30	X31	Y31	Z31	X32	Y32	Z32	X33	Y33	Z33	X34	Y34	Z34	X35	Y35	Z35	X36	Y36	Z36	X37	Y37	Z37	X38	Y38	Z38	X39	Y39	Z39

1032	60.6339	0.934043	1.31024	-0.989113	0.816772	1.21424	-0.966829	1.29052	0.179279	-1.02361	0.915758	0.780281	-0.830925	0.896276	1.4672	-0.898984	1.06215	1.0851	-0.626033	0.723361	1.46777	-0.972759	1.04575	0.898564	-0.33171	1.07318	1.01388	-0.503001	1.29731	0.257328	-1.09575	1.00916	0.356648	-0.807574	1.05652	0.827144	-0.861189	0.938683	1.28098	-0.808028	0.969534	0.525895	-0.799223	1.15979	0.276071	-0.894834	1.31747	-0.0117103	-1.11885	1.01649	1.17399	-0.712526	0.992562	0.959078	-0.39134	1.07511	0.92782	-0.399998	1.00459	0.0497647	-0.982115	0.851607	0.807781	-1.09229	1.00459	1.17583	-1.10049	0.928845	1.46891	-0.996836	0.626457	1.10719	-1.24011	0.771002	1.47236	-1.06463	0.352993	1.06187	-1.09851	0.485913	1.06383	-1.22207	1.06366	0.0114311	-0.89822	0.800365	0.392163	-1.08867	1.02054	0.848515	-1.11062	0.83182	1.25771	-1.12614	0.819814	0.615348	-1.13173	0.904932	0.201001	-1.04899	0.814964	0.0146511	-0.990194	0.715285	1.15687	-1.21263	0.397698	0.980762	-1.10846	0.355283	1.03649	-1.16452	0.786388	1.04658	-0.934972	1.03842	0.972566	-0.99612
1033	60.6539	0.934733	1.31479	-0.988362	0.815044	1.22014	-0.97302	1.26026	0.183457	-0.998999	0.899804	0.786197	-0.830939	0.897777	1.47479	-0.905657	1.0258	1.08744	-0.612152	0.722804	1.47116	-0.973925	0.982077	0.917994	-0.310623	1.02562	1.02041	-0.48629	1.27259	0.26233	-1.06969	0.971829	0.361326	-0.797677	1.04215	0.830347	-0.853901	0.92558	1.2851	-0.805942	0.939822	0.532314	-0.792344	1.1243	0.279778	-0.878202	1.28967	-0.00571269	-1.10096	0.991455	1.17689	-0.702831	0.93738	0.98235	-0.373691	1.01391	0.939241	-0.379833	1.00434	0.0498451	-0.981939	0.851248	0.813264	-1.09589	1.01429	1.17981	-1.09262	0.927278	1.47575	-1.00444	0.652288	1.11092	-1.267	0.767432	1.47556	-1.0675	0.368794	1.05965	-1.15833	0.51105	1.06484	-1.2654	1.0636	0.0115047	-0.89806	0.801894	0.394262	-1.08606	1.02291	0.85246	-1.10296	0.844263	1.2626	-1.13244	0.820765	0.61751	-1.13049	0.904735	0.202637	-1.04802	0.814918	0.014774	-0.990201	0.737373	1.16088	-1.23058	0.411006	0.977846	-1.16518	0.375632	1.03482	-1.22351	0.78068	1.05294	-0.943819	1.03507	0.975671	-0.987315
1034	60.6739	0.936051	1.31944	-0.987819	0.815164	1.22531	-0.978821	1.23388	0.192099	-0.981973	0.886977	0.792275	-0.831941	0.901326	1.48234	-0.912603	0.990686	1.09185	-0.600911	0.722943	1.47387	-0.970912	0.918313	0.940502	-0.295575	0.978377	1.02953	-0.473138	1.25032	0.271959	-1.05063	0.939171	0.367037	-0.792667	1.0318	0.835452	-0.846753	0.914389	1.28942	-0.804971	0.914523	0.539223	-0.789157	1.09369	0.28661	-0.867992	1.26866	0.00525672	-1.0908	0.967493	1.18092	-0.694982	0.883108	1.00744	-0.362154	0.95245	0.953954	-0.364552	1.00403	0.0499863	-0.981867	0.852514	0.818493	-1.09967	1.02413	1.18408	-1.08424	0.925008	1.48249	-1.01293	0.681976	1.11274	-1.2905	0.761988	1.47805	-1.06672	0.391107	1.05517	-1.21334	0.542143	1.06364	-1.30431	1.06372	0.0113891	-0.898254	0.804069	0.396779	-1.08344	1.02526	0.855221	-1.0974	0.857592	1.26707	-1.13719	0.822742	0.619902	-1.12946	0.905214	0.203932	-1.04655	0.814829	0.0148939	-0.990189	0.761874	1.16337	-1.24566	0.432951	0.973324	-1.21693	0.403972	1.0308	-1.27748	0.777695	1.05934	-0.952507	1.03409	0.979411	-0.980084
1035	60.6939	0.937688	1.32378	-0.987716	0.816549	1.22943	-0.984213	1.21156	0.203865	-0.973006	0.877417	0.797969	-0.833442	0.9061	1.48934	-0.919722	0.956864	1.09831	-0.592386	0.723995	1.47599	-0.965035	0.857402	0.96575	-0.286252	0.932629	1.04121	-0.46374	1.22926	0.285133	-1.03855	0.911479	0.373187	-0.790327	1.02329	0.838961	-0.84279	0.90497	1.29368	-0.80537	0.893832	0.546465	-0.787314	1.06782	0.295581	-0.862518	1.25176	0.0202761	-1.08779	0.945048	1.18615	-0.689203	0.831791	1.03381	-0.355985	0.893282	0.971886	-0.354364	1.00414	0.0501203	-0.981952	0.855227	0.822973	-1.10309	1.0334	1.18837	-1.07593	0.922044	1.48827	-1.02171	0.714211	1.11365	-1.31083	0.755803	1.47956	-1.06307	0.418627	1.04953	-1.26427	0.577726	1.06125	-1.33924	1.06388	0.0112388	-0.898583	0.807671	0.399147	-1.08308	1.0282	0.857423	-1.09328	0.870858	1.27128	-1.14046	0.826398	0.622037	-1.12991	0.907013	0.205135	-1.04651	0.814832	0.0148983	-0.990227	0.787607	1.1652	-1.25823	0.461821	0.968255	-1.2639	0.438264	1.02555	-1.32675	0.777507	1.06481	-0.960666	1.03472	0.982844	-0.973685
1036	60.7139	0.940044	1.3275	-0.988609	0.819009	1.23273	-0.988857	1.19003	0.218379	-0.967717	0.870805	0.80304	-0.834955	0.912005	1.49545	-0.927635	0.925542	1.10643	-0.586662	0.726776	1.47759	-0.957528	0.801784	0.993329	-0.281886	0.890053	1.05479	-0.458172	1.2071	0.301438	-1.03	0.886142	0.380396	-0.786636	1.01622	0.840179	-0.841577	0.898431	1.29774	-0.807054	0.876128	0.554487	-0.784176	1.04347	0.306438	-0.857841	1.23479	0.0389075	-1.08733	0.925413	1.19202	-0.685636	0.785505	1.06101	-0.354417	0.838444	0.992233	-0.34923	1.00464	0.0502487	-0.982115	0.858747	0.826593	-1.10566	1.04174	1.192	-1.06893	0.918923	1.4926	-1.03087	0.748087	1.114	-1.32901	0.750146	1.48003	-1.05775	0.450649	1.04302	-1.31191	0.616594	1.05853	-1.37086	1.06394	0.0113138	-0.898651	0.811828	0.401071	-1.08452	1.03106	0.858493	-1.09005	0.883093	1.27523	-1.14266	0.830535	0.624139	-1.13134	0.909577	0.206278	-1.04767	0.814922	0.0148097	-0.990334	0.813598	1.16686	-1.26903	0.4958	0.962579	-1.3075	0.477343	1.01967	-1.372	0.779506	1.06892	-0.967301	1.03641	0.985102	-0.96787
1037	60.7339	0.943255	1.33091	-0.990419	0.822478	1.23592	-0.992534	1.16635	0.235156	-0.960725	0.866073	0.808128	-0.836198	0.91892	1.50077	-0.936882	0.897634	1.11569	-0.583588	0.731832	1.47934	-0.949045	0.751883	1.02242	-0.282028	0.851708	1.06996	-0.456012	1.18203	0.319381	-1.02103	0.861467	0.390423	-0.777774	1.01147	0.84183	-0.839929	0.895062	1.30156	-0.809483	0.860038	0.564626	-0.777752	1.01847	0.319343	-0.849636	1.21321	0.0583104	-1.08302	0.9091	1.19818	-0.683947	0.745167	1.08915	-0.356617	0.789041	1.01484	-0.348496	1.00526	0.0503212	-0.982304	0.862265	0.829515	-1.10738	1.04919	1.19506	-1.06379	0.915829	1.4957	-1.04047	0.782911	1.11416	-1.34535	0.745511	1.48016	-1.05115	0.486808	1.03468	-1.35662	0.657982	1.05558	-1.39931	1.06399	0.0116865	-0.898183	0.815398	0.402522	-1.08626	1.03241	0.857527	-1.08785	0.894196	1.27907	-1.14425	0.833845	0.626309	-1.13297	0.912028	0.207163	-1.04886	0.815041	0.0147194	-0.990461	0.839276	1.16857	-1.27845	0.534332	0.955919	-1.34706	0.520878	1.01226	-1.41343	0.782605	1.07266	-0.972502	1.03843	0.986553	-0.963188
1038	60.7539	0.946838	1.33404	-0.992158	0.826445	1.23918	-0.995127	1.14011	0.251772	-0.94819	0.862594	0.81362	-0.837213	0.925962	1.50523	-0.946442	0.873115	1.12547	-0.582389	0.738821	1.48135	-0.939714	0.707766	1.05263	-0.28576	0.81738	1.08652	-0.456317	1.15471	0.335799	-1.00832	0.837274	0.404394	-0.762609	1.00856	0.844367	-0.838069	0.894039	1.30476	-0.811867	0.845341	0.57784	-0.767701	0.992659	0.333797	-0.835497	1.18525	0.0745197	-1.06998	0.895535	1.20429	-0.683313	0.70981	1.11786	-0.361768	0.745109	1.03969	-0.350833	1.00547	0.0504277	-0.982374	0.865041	0.83186	-1.10861	1.05545	1.19773	-1.06021	0.912506	1.49782	-1.04922	0.817497	1.11494	-1.35918	0.741989	1.48053	-1.04277	0.526341	1.02209	-1.39634	0.700662	1.05199	-1.42359	1.06409	0.0120709	-0.89746	0.817385	0.40349	-1.08661	1.03345	0.855827	-1.08634	0.904149	1.28295	-1.1452	0.836103	0.627414	-1.13287	0.913537	0.207227	-1.04848	0.815122	0.0147027	-0.990553	0.863905	1.17089	-1.28649	0.577476	0.946811	-1.3804	0.567749	1.00156	-1.44915	0.785884	1.07646	-0.976698	1.04007	0.987898	-0.960491
1039	60.7738	0.949826	1.33667	-0.993181	0.830017	1.24196	-0.996894	1.11296	0.266387	-0.930515	0.86067	0.819236	-0.838153	0.932002	1.50878	-0.954478	0.851276	1.13569	-0.58223	0.746649	1.48294	-0.92923	0.668146	1.0833	-0.292254	0.78623	1.10402	-0.458339	1.12804	0.349693	-0.992278	0.814551	0.421855	-0.744382	1.00761	0.847711	-0.836888	0.893931	1.3069	-0.813895	0.832709	0.593546	-0.756263	0.967511	0.349434	-0.817614	1.1546	0.0871704	-1.05	0.883607	1.21005	-0.683244	0.677893	1.14619	-0.369366	0.705903	1.06587	-0.35533	1.00466	0.0508086	-0.981835	0.866831	0.83314	-1.10973	1.06017	1.2002	-1.05775	0.908245	1.49917	-1.05553	0.851061	1.11563	-1.36978	0.739247	1.48102	-1.03176	0.567095	1.00434	-1.42692	0.742984	1.04651	-1.44149	1.06421	0.0121438	-0.896933	0.816558	0.404154	-1.083	1.03512	0.854047	-1.08557	0.911911	1.28671	-1.14589	0.836508	0.62728	-1.1297	0.912803	0.2064	-1.045	0.815029	0.0148028	-0.9905	0.886659	1.17348	-1.29268	0.623412	0.934979	-1.40398	0.615564	0.986748	-1.47523	0.78902	1.07975	-0.980254	1.04178	0.989328	-0.959839
1040	60.7938	0.951547	1.33858	-0.993764	0.832594	1.24382	-0.997998	1.08903	0.279436	-0.914086	0.861215	0.824327	-0.838442	0.93594	1.51058	-0.960243	0.831501	1.14627	-0.583107	0.754002	1.48398	-0.917816	0.631199	1.11361	-0.301611	0.757977	1.12217	-0.461942	1.1059	0.362661	-0.977771	0.795391	0.440066	-0.729229	1.00899	0.850923	-0.837394	0.894021	1.30813	-0.815818	0.823082	0.60943	-0.74708	0.946193	0.365123	-0.801951	1.12827	0.0992214	-1.03181	0.872736	1.21543	-0.683796	0.64821	1.17333	-0.379657	0.670031	1.09182	-0.362431	1.00298	0.0516584	-0.981059	0.867748	0.832833	-1.11037	1.06308	1.20262	-1.05675	0.902917	1.49961	-1.05896	0.881972	1.1153	-1.37687	0.736977	1.48139	-1.01884	0.606278	0.980835	-1.44433	0.782586	1.03805	-1.4512	1.06431	0.0120043	-0.896693	0.81357	0.404744	-1.07596	1.03738	0.852887	-1.08564	0.916201	1.28996	-1.14691	0.835023	0.626724	-1.12459	0.909906	0.206161	-1.04023	0.81477	0.0150058	-0.990262	0.906333	1.1751	-1.29702	0.669151	0.92084	-1.41386	0.661195	0.967628	-1.48824	0.791958	1.08188	-0.982795	1.044	0.990895	-0.960713
1041	60.8138	0.95221	1.33985	-0.994194	0.834272	1.24473	-0.997946	1.07136	0.290923	-0.903679	0.864432	0.828269	-0.83791	0.937828	1.51054	-0.964546	0.813651	1.15666	-0.585023	0.760588	1.48451	-0.906834	0.596235	1.14319	-0.313969	0.732103	1.14005	-0.46722	1.09008	0.374216	-0.968209	0.781198	0.456169	-0.720301	1.0126	0.853271	-0.839049	0.894624	1.30867	-0.817441	0.816814	0.623198	-0.742252	0.930542	0.378699	-0.792134	1.10943	0.110673	-1.02079	0.863183	1.22033	-0.68469	0.620665	1.1991	-0.392569	0.636599	1.1168	-0.372475	1.00142	0.0526306	-0.980912	0.868106	0.832263	-1.11011	1.06426	1.20499	-1.05735	0.89695	1.49898	-1.06059	0.908193	1.11358	-1.38044	0.735167	1.48143	-1.00592	0.64262	0.94995	-1.44795	0.817592	1.02576	-1.45189	1.06442	0.0118741	-0.896723	0.811099	0.40537	-1.06961	1.04004	0.85382	-1.08671	0.916746	1.2924	-1.14792	0.833435	0.626492	-1.12036	0.907375	0.20657	-1.03663	0.814575	0.0152036	-0.989988	0.921601	1.17485	-1.29946	0.712869	0.90428	-1.40822	0.703255	0.942987	-1.4869	0.794655	1.08287	-0.983696	1.04693	0.992646	-0.961986
1042	60.8338	0.952477	1.34032	-0.994195	0.835438	1.24448	-0.996553	1.05821	0.299355	-0.896198	0.869713	0.830961	-0.837631	0.938694	1.50929	-0.967771	0.79791	1.16584	-0.587646	0.766483	1.48432	-0.897212	0.563407	1.17257	-0.329592	0.708367	1.15699	-0.473876	1.07864	0.382291	-0.961543	0.770532	0.47031	-0.715634	1.01776	0.854601	-0.841581	0.895858	1.30799	-0.818479	0.813277	0.634842	-0.740885	0.918723	0.38957	-0.785763	1.09475	0.117259	-1.00988	0.855332	1.22402	-0.685667	0.595598	1.22397	-0.408101	0.605826	1.14159	-0.384775	1.00112	0.0525325	-0.980458	0.868638	0.832226	-1.10967	1.06462	1.20721	-1.05887	0.891199	1.49731	-1.0609	0.929811	1.11015	-1.38084	0.734036	1.48064	-0.994145	0.678868	0.910329	-1.43803	0.848483	1.00987	-1.44365	1.06452	0.0118221	-0.896883	0.809639	0.405819	-1.06523	1.04187	0.853387	-1.08929	0.914862	1.29405	-1.14817	0.832505	0.626545	-1.11838	0.905753	0.207023	-1.03439	0.814459	0.0153587	-0.989789	0.932746	1.17274	-1.30031	0.754596	0.887488	-1.38653	0.743868	0.912182	-1.47048	0.797284	1.0827	-0.983713	1.0508	0.994221	-0.963457
